<svg xmlns="http://www.w3.org/2000/svg" version="1" width="800" height="424" viewBox="0 0 600.000000 318.000000"><path d="M69 74.7L.5 142.9l68.8.1H138V74.5c0-37.7-.1-68.4-.2-68.3-.2.1-31.1 30.9-68.8 68.5z" fill="navy"/><path d="M144 6.5c0 .9 45 90.5 45.5 90.5S235 7.5 235 6.5c0-.3-20.5-.5-45.5-.5s-45.5.2-45.5.5z" fill="#a00"/><path d="M240.7 74.7l.3 67.8 68 .3c38.9.1 68-.2 68-.7C377 141.3 241.7 7 240.9 7c-.2 0-.3 30.5-.2 67.7z" fill="navy"/><path d="M410 150v18h-20v20h18v60.6l2.6 5.2c1.4 2.9 4.4 6.8 6.7 8.7 6.2 5.3 11.6 6.5 29.9 6.5H463v-21h-10.4c-11.9 0-14.8-1.3-16.6-7.8-.5-2.1-1-14.4-1-28V188h28v-20h-28v-36h-25v18zM.8 204.2c-.2 20-.3 42.5-.3 50V268H27v-78h31l.2 39.2.3 39.3 10.9.3c6 .2 12 .1 13.3-.3l2.3-.5v-78h13.8c10.4 0 14.3.4 15.8 1.4 1.8 1.4 1.9 3.3 2.4 39.3l.5 37.8h24l.3-39.5c.3-45.6.4-44.9-8.2-52.7-9.4-8.6-7-8.3-73.8-8.3H1l-.2 36.2zm170.1-28.5c-.1 4.3-.3 8.8-.4 10l-.2 2.3h28.1c24.8 0 28.5.2 31.6 1.8 4.8 2.4 8 7.5 8 12.8v4.4h-24.2c-29.5 0-35.4 1.2-43.2 8.6-5.2 4.9-6.6 9.6-6.6 22.7 0 13.6.8 16.2 6.9 22.5 7.2 7.3 6.1 7.2 52.1 7.2h41v-37.4c0-40.6-.1-41.8-5.7-49.5-3.3-4.6-7.3-7.5-14.4-10.4-5.1-2-7.4-2.2-39.1-2.5l-33.8-.4-.1 7.9zm65.6 62.3v9.5l-20.7.3-20.6.2-2.4-3.2c-3.2-4.6-3.1-10.7.1-14.2l2.5-2.6 20.5.2 20.6.3v9.5zm64-68.4c-6.2 3.2-12.4 11.1-14.6 18.6-.5 1.8-1 6.9-1 11.3 0 9.1 2.5 17.7 6.4 21.3 5 4.7 8.2 5.2 32.2 5.2 24.4 0 26.6.4 29.9 5.4 3.1 4.8 1.3 12-3.8 14.9-1.5.8-11.4 1.4-32.6 1.7l-30.5.5-.3 9.8-.3 9.7h36.6c40.4 0 40.1 0 48.1-6.5 2.3-1.9 5.4-5.8 6.8-8.7 2.4-4.7 2.6-6.3 2.6-17.2 0-13.8-1.4-18.2-7.1-23-7.7-6.6-10.2-7.1-33.9-7.1-11.8 0-22.1-.4-22.9-.9-2.3-1.4-4.2-7.2-3.2-9.8 2.2-5.7 2.3-5.7 33.7-6l28.9-.3.3-10.3.3-10.2h-36.3c-30.9 0-36.7.2-39.3 1.6zM480 218.5V269h25V168h-25v50.5zm49-.6v49.8l5.3.7c2.8.3 8.5.6 12.5.6h7.2v-82h9.8c12.9 0 13.2.3 13.2 12.8v9.2h23.2l-.4-13.9c-.3-13.3-.4-14-3.3-18.7-5.1-8.3-5.6-8.4-38.7-8.4H529v49.9z"/><text style="line-height:125%" x="-.828" y="315.646" transform="scale(1.0316 .96937)" font-size="33.011" font-weight="400" letter-spacing="0" word-spacing="0" font-family="Sans"><tspan x="-.828" y="315.646">ENERJi TESiSLERi MONTAJ LTD. ŞTi.</tspan></text></svg>